<?xml version="1.0" encoding="utf-8"?>
<!-- Generator: Adobe Illustrator 26.0.0, SVG Export Plug-In . SVG Version: 6.00 Build 0)  -->
<svg version="1.1" id="asd_xA0_Imagem_00000067939595234790069840000014641609817924928427_"
	 xmlns="http://www.w3.org/2000/svg" xmlns:xlink="http://www.w3.org/1999/xlink" x="0px" y="0px" viewBox="0 0 1000 1000"
	 style="enable-background:new 0 0 1000 1000;" xml:space="preserve">
<style type="text/css">
	.st0{fill:#F0F3FA;}
	.st1{fill:#D7DCE2;}
	.st2{fill:#E6E9EE;}
	.st3{fill:#CCD3D9;}
	.st4{fill:#757474;}
	.st5{fill:#167432;}
</style>
<path class="st0" d="M150.5,796.3c-18.4-5.3-36.7-10.8-55.2-15.7c-25.4-6.7-51-12.9-76.5-19.4c-3.6-0.9-7-2.7-12-4.7
	c11-11.9,20.7-22.7,30.6-33.3c29.8-31.9,59.7-63.7,89.6-95.6c6.6-7.1,12.7-14.5,19.7-21.2c2.7-2.5,7.2-3.3,10.8-4.9
	c3.5,1.5,7,3.4,10.7,4.3c42.7,10.1,85.3,20.2,128,30.1c23.6,5.5,47.3,10.6,70.9,15.8c2.6,0.9,5.1,1.9,7.7,2.6
	c40.9,9.9,81.7,19.7,122.6,29.5c0,0.8,0,1.7,0,2.5c-17.5,18-35.1,35.9-52.4,54.1c-30.8,32.5-61.2,65.3-92.3,97.5
	c-2.9,3-9.7,4.9-13.9,3.9c-43.5-10.4-86.7-21.7-130.1-32.3C189.5,804.8,170,800.7,150.5,796.3z"/>
<path class="st0" d="M841.8,599.4c7.5,6.1,15.9,11.5,22.5,18.5c21.6,23,42.5,46.7,63.7,70c21,23,42.2,45.8,65.2,70.9
	c-11.2,2.9-20.7,5.5-30.3,7.7c-35.1,8-70.3,15.8-105.4,23.8c-2.9,0.7-5.6,2.5-8.3,3.8c-4.3,0.2-8.8-0.2-13,0.7
	C778.6,807.5,721,820,663.7,833.2c-8.1,1.9-13,0.2-18.5-5.3C610,792.8,574.6,758,539.1,723.1c-10-9.8-20.3-19.3-30.1-29.3
	c-2.9-2.9-4.6-6.8-6.9-10.2c5.3-1.4,10.5-3,15.8-4.2c38.2-9.2,76.4-18.4,114.7-27.6c8-1.8,16-3.6,24-5.4
	c14.1-3.6,28.2-7.2,42.3-10.8c3.8-0.5,7.8-0.6,11.5-1.5c27-6.8,53.9-13.5,80.8-20.6C808.1,609.1,824.9,604.1,841.8,599.4z"/>
<path class="st1" d="M502.1,683.7c2.3,3.4,4.1,7.3,6.9,10.2c9.8,9.9,20.1,19.4,30.1,29.3c35.4,34.9,70.9,69.7,106.1,104.8
	c5.5,5.5,10.3,7.2,18.5,5.3c57.4-13.2,114.9-25.8,172.5-38.4c4.2-0.9,8.6-0.5,13-0.7c0,33.6-0.4,67.2,0.3,100.8
	c0.2,9.9-3,13.7-12.8,16c-89.3,20.4-178.5,41.2-267.8,61.9c-23,5.3-45.9,10.7-68.9,16c0-100.8,0-201.6,0-302.4c0-0.8,0-1.5,0-2.3
	C500.6,683.9,501.3,683.8,502.1,683.7z"/>
<path class="st2" d="M499.8,686.4c0,100.8,0,201.6,0,302.4c-25.3-5.3-50.7-10.3-75.9-16c-87.2-19.7-174.3-39.8-261.5-59.3
	c-9.5-2.1-12.4-5.9-12.3-15.3c0.6-33.9,0.3-67.8,0.3-101.7c19.5,4.4,39,8.4,58.3,13.2c43.4,10.7,86.6,21.9,130.1,32.3
	c4.1,1,11-0.9,13.9-3.9c31.1-32.2,61.5-65,92.3-97.5c17.3-18.2,34.9-36.1,52.4-54.1C498.2,686.4,499,686.4,499.8,686.4z"/>
<path class="st3" d="M656.6,646.4c-8,1.8-16,3.6-24,5.4c-7.7-37.5-21.5-72.7-42.9-107c-4.7,8.7-8.6,15.7-12.3,22.7
	c-3.3,6.3-7.1,8.9-13.5,3.2c-30.2-26.6-98-26.5-128.1,0c-6.4,5.6-10.2,3.2-13.6-3.1c-3.8-7.2-7.8-14.2-12.6-22.8
	c-20.9,34.7-35.2,69.5-42.5,106.9c-23.7-5.3-47.3-10.4-70.9-15.8c-42.7-9.9-85.4-20-128-30.1c-3.7-0.9-7.1-2.9-10.7-4.3
	c33.9-11.3,67.7-23,101.7-33.8c76.2-24.2,152.7-47.3,228.6-72.2c17.5-5.7,31.7,0.4,46.7,4.9c55.4,16.6,110.7,33.8,166,50.7
	c4.1,1.2,8.4,1.5,12.7,2.1c-8.1,9.2-16.1,18.4-24.3,27.5C671.9,599.9,659.5,621,656.6,646.4z"/>
<path class="st4" d="M475.4,173.4c-1.5-40.8-3-81.5-4.5-122.3c-0.1-2.3-0.3-4.6-0.3-6.9c0.2-17.8,13.5-32.7,29.4-33
	c16.1-0.3,30.8,15.2,30.3,33.3c-0.9,32.8-2.6,65.5-3.8,98.3c-2,52.2-3.8,104.4-5.7,156.5c-0.1,2.7-0.1,5.4-0.5,8
	c-1.6,11.3-9.8,19-20.1,18.9c-10.9-0.1-19-8.2-19.6-20.4C478.8,261.8,477.2,217.6,475.4,173.4C475.4,173.4,475.4,173.4,475.4,173.4z
	"/>
<path class="st4" d="M543.1,110.6c0.7-14.6,1.3-28.7,2.1-45.3c18.5,4,36.6,7,54.1,11.9c56.5,15.8,105.7,43.8,147.6,83.5
	c10.3,9.8,11.5,18.6,5.2,29.8c-5.3,9.5-13.9,12.1-24,10.3c-4.4-0.8-9.1-3.1-12.3-6.2c-47.2-44.5-103.3-72.1-168.4-82.4
	C546.2,112.1,545.2,111.5,543.1,110.6z"/>
<path class="st4" d="M456.1,67.7c0,13.9,0,28.2,0,43.5c-14,3.3-29,6.1-43.6,10.3c-48.2,13.9-90.2,38.2-126.1,72.2
	c-8.6,8.1-18.3,10.5-29.1,5.2c-9.9-4.9-14.1-13.5-11.8-23.9c1-4.6,3.6-9.5,7.1-12.8c55.8-53.1,122.7-84.9,200.3-95.6
	C453.4,66.4,454.2,67,456.1,67.7z"/>
<path class="st4" d="M656.6,646.4c2.9-25.5,15.3-46.5,32.3-65.5c8.2-9.1,16.2-18.4,24.3-27.5c11.7-18.9,7.7-43.3-9.5-57.9
	c-12.7-10.8-15-19.8-7.4-28.9c7.5-9,20.7-9.6,33.1-1.7c18.7,11.8,23.6,30.8,27.5,49.9c3.6,17.8,2.9,35.6-5.2,52.5
	c-9.5,11.4-18,23.9-28.9,34c-10.8,10-19.3,20.7-23.8,34.4C684.8,639.2,670.7,642.8,656.6,646.4z"/>
<path class="st4" d="M449.4,395.2c0.1-27.4,23.3-49.5,51.6-49.1c27.8,0.4,50.5,22.4,50.7,49.1c0.2,27.1-23.1,49.6-51.3,49.7
	C472,444.9,449.3,422.7,449.4,395.2z"/>
<path class="st4" d="M461.3,206.6c-42.6,8.9-77.5,26.9-107.2,54.8c-9.9,9.3-23.8,9-33.1,0.5c-9.2-8.4-10.2-22.7-0.8-31.8
	c38.1-37.1,84.1-59.7,138.9-69.2C459.9,176.5,460.6,191.4,461.3,206.6z"/>
<path class="st4" d="M541,206.9c0-15.7,0-30.1,0-46c6.6,1.2,11.9,1.9,17.2,3.1c46.1,10.5,86.2,31.7,120.1,63.7
	c9.9,9.4,11.5,20,4.9,29.9c-5.8,8.8-16.6,12.8-26.9,9.3c-3.6-1.2-7.2-3.3-10-5.9C616.7,233.1,581.6,215.2,541,206.9z"/>
<path class="st3" d="M698.9,635.7c4.5-13.7,13-24.4,23.8-34.4c10.9-10.1,19.4-22.6,28.9-34c27.5,9.8,55,19.6,82.5,29.4
	c2.6,0.9,5.1,1.9,7.7,2.8c-16.9,4.7-33.6,9.7-50.6,14.1c-26.9,7.1-53.8,13.9-80.8,20.6C706.7,635.1,702.7,635.2,698.9,635.7z"/>
<path class="st4" d="M537.9,256.4c29.1,7,53.2,20.1,73.2,39.9c9.7,9.6,9.2,22.9,0,31.8c-8.8,8.5-21.7,8.7-32.3,1.1
	c-13.5-9.7-27.4-18.9-42.8-29.6C536.5,287.6,537.1,272.8,537.9,256.4z"/>
<path class="st4" d="M463.6,256.1c0,16.8,0,31.6,0,44.4C449,310.6,435,320.2,421.1,330c-10,7-23.2,6.3-31.3-1.9
	c-8.7-8.8-9.6-22.1-0.7-31C409.1,276.8,433.4,263.6,463.6,256.1z"/>
<path class="st4" d="M367.1,651.8c7.3-37.4,21.6-72.2,42.5-106.9c4.8,8.6,8.8,15.6,12.6,22.8c3.3,6.4,7.2,8.7,13.6,3.1
	c30.2-26.5,97.9-26.5,128.1,0c6.4,5.7,10.3,3.1,13.5-3.2c3.7-7.1,7.6-14,12.3-22.7c21.4,34.3,35.2,69.4,42.9,107
	c-38.2,9.2-76.5,18.4-114.7,27.6c-5.3,1.3-10.5,2.8-15.8,4.2c-0.8,0.1-1.5,0.2-2.3,0.3c-0.8-0.1-1.6-0.1-2.4-0.2
	c-40.9-9.8-81.8-19.6-122.6-29.5C372.2,653.7,369.7,652.7,367.1,651.8z M544.1,631.9c-1.5,0.1-3,0.3-4.4,0.4
	c-0.9-6.7-1.8-13.3-3-22.2c-5.3,5.9-9.9,9.7-12.8,14.4c-6.5,10.7-1.4,24.2,10.7,26.5c17,3.3,33.1,1.2,45.2-12.8
	c6.9-7.9,7.9-16.7,2.8-25.4c-5.4-9.3-14.3-12-25.3-10.4c-9.7,1.4-13.5,6-12.3,15.4C545.5,622.4,544.4,627.2,544.1,631.9z
	 M456.1,632.3c-1.5,0-2.9,0-4.4,0c-0.6-5.7-0.7-11.5-1.9-17.1c-1.1-5.1-2.6-13.7-5-14.1c-6.4-0.9-14.3,0.2-19.8,3.4
	c-10.4,6.1-11.4,20.8-3.6,30.4c10.1,12.4,30.4,18.6,46.1,14c10.5-3.1,17.1-14.1,11.8-23.5c-4.3-7.7-12-13.6-18.1-20.2
	c-1.1,0.8-2.2,1.5-3.3,2.3C457.3,615.7,456.7,624,456.1,632.3z"/>
<path class="st0" d="M497.4,683.8c0.8,0.1,1.6,0.1,2.4,0.2c0,0.8,0,1.5,0,2.3c-0.8,0-1.6,0-2.4,0
	C497.4,685.5,497.4,684.7,497.4,683.8z"/>
<path class="st5" d="M544.1,631.9c0.3-4.7,1.4-9.5,0.9-14.1c-1.2-9.4,2.6-14,12.3-15.4c11-1.6,19.8,1.1,25.3,10.4
	c5.1,8.7,4,17.5-2.8,25.4c-12.1,14-28.3,16-45.2,12.8c-12.1-2.3-17.2-15.8-10.7-26.5c2.9-4.7,7.5-8.5,12.8-14.4
	c1.2,8.9,2.1,15.5,3,22.2C541.2,632.2,542.6,632.1,544.1,631.9z"/>
<path class="st5" d="M456.1,632.3c0.6-8.3,1.2-16.6,1.9-24.9c1.1-0.8,2.2-1.5,3.3-2.3c6.2,6.7,13.9,12.6,18.1,20.2
	c5.3,9.4-1.3,20.4-11.8,23.5c-15.7,4.6-36.1-1.5-46.1-14c-7.8-9.6-6.8-24.2,3.6-30.4c5.5-3.2,13.4-4.3,19.8-3.4c2.4,0.4,4,9,5,14.1
	c1.2,5.6,1.3,11.4,1.9,17.1C453.2,632.3,454.6,632.3,456.1,632.3z"/>
</svg>
