<?xml version="1.0" encoding="utf-8"?>
<!-- Generator: Adobe Illustrator 26.0.0, SVG Export Plug-In . SVG Version: 6.00 Build 0)  -->
<svg version="1.1" id="Camada_1" xmlns="http://www.w3.org/2000/svg" xmlns:xlink="http://www.w3.org/1999/xlink" x="0px" y="0px"
	 viewBox="0 0 1417.32 1417.32" style="enable-background:new 0 0 1417.32 1417.32;" xml:space="preserve">
<style type="text/css">
	.st0{fill:#FEFEFE;}
	.st1{fill:#286195;}
	.st2{fill:#4BB2F8;}
	.st3{fill:#4EB3F8;}
	.st4{fill:#4DB2F8;}
	.st5{fill:#2C6498;}
	.st6{fill:#2B6497;}
	.st7{fill:#2A6396;}
	.st8{fill:#296296;}
	.st9{fill:#2B6397;}
	.st10{fill:#FAFCFE;}
</style>
<g>
	<path class="st0" d="M399.09,419.29c-0.4-0.57-0.81-1.14-1.21-1.71c-2.74,0.45-5.7,0.38-8.19,1.43
		c-13.16,5.57-26.6,10.65-39.19,17.33c-29.35,15.56-59.16,30.52-87.12,48.35c-31.5,20.09-59.95,44.53-86.75,70.72
		c-22.41,21.9-42.53,45.72-60.13,71.63c-22.9,33.72-42.59,69.14-53.06,108.83c-5.63,21.32-11.61,42.88-13.82,64.7
		c-4.08,40.26-3.13,80.67,9.9,119.63c6.29,18.79,12.65,37.82,21.58,55.41c24.44,48.13,60.54,86.53,105.01,116.62
		c19.7,13.33,40.81,24.84,62.18,35.35c18.46,9.08,37.96,16.25,57.43,23.02c19.43,6.76,39.2,12.82,59.19,17.62
		c17.55,4.22,35.57,6.67,53.48,9.16c19.1,2.65,38.26,5.48,57.49,6.39c55.89,2.65,111.78,2.57,167.32-5.77
		c20.24-3.04,40.46-6.31,60.59-9.99c14.32-2.62,28.55-5.82,42.7-9.27c17.53-4.27,35.02-8.75,52.36-13.71
		c13.74-3.93,27.33-8.43,40.8-13.21c17.89-6.35,35.79-12.78,53.34-19.99c18.83-7.74,37.48-15.97,55.82-24.81
		c23.87-11.51,47.96-22.77,70.84-36.05c27.54-15.98,54.86-32.66,80.53-51.43c29.95-21.9,59.15-45.14,86.6-70.08
		c31.53-28.65,60.43-60.13,85.29-94.98c9.66-13.55,19.12-27.24,28.48-41.01c1.22-1.8,2.2-4.81,1.51-6.54
		c-0.53-1.3-3.9-1.98-6.03-2.03c-9.68-0.22-19.41,0.42-29.04-0.31c-7.66-0.58-11.99,2.47-15.95,8.68
		c-28.41,44.55-63.99,83.11-103.67,117.5c-43.18,37.42-89.45,70.96-140.31,97.5c-23.45,12.24-47.1,24.22-71.29,34.88
		c-21.15,9.32-42.95,17.34-64.9,24.66c-23.37,7.79-47.01,15-70.95,20.73c-22.35,5.36-45.14,9.26-67.94,12.33
		c-29.84,4.03-59.8,7.69-89.84,9.56c-43.62,2.72-87.23,0.68-130.38-6.65c-25.93-4.4-51.7-9.87-77.45-15.25
		c-31.41-6.56-60.98-18.9-89.83-32.26c-31.25-14.47-61.55-31.26-87.6-54.41c-40.18-35.71-72.09-76.88-86.72-129.83
		c-5.67-20.52-9.34-41.24-10.49-62.42c-2.04-37.47,1.56-74.3,11.26-110.67c7.72-28.94,18.07-56.68,32.52-82.88
		c18.13-32.87,39.98-63.16,65.7-90.41c37.58-39.82,79.88-74.04,126.52-102.83C397.04,422.04,397.96,420.5,399.09,419.29z
		 M565.87,364.21c-0.06,0-0.11,0-0.17,0c0,20.55,0.11,41.1-0.03,61.65c-0.12,17.15-0.28,15.73,15.79,9.51
		c18.53-7.17,37.17-14.09,55.93-20.65c17.41-6.09,34.96-11.79,52.58-17.21c14.76-4.54,29.55-9.28,44.65-12.41
		c23-4.77,46.17-8.94,69.44-12.03c25.42-3.37,50.99-6.2,76.58-7.51c36.29-1.85,72.64-1.36,108.74,3.99
		c13.24,1.96,26.71,2.73,39.75,5.57c17.56,3.83,35.17,8.09,52.09,14.05c23.56,8.3,47.2,16.94,69.56,27.97
		c35.22,17.37,66.5,40.64,92.67,70.28c16.55,18.74,30.65,39.12,39.78,62.53c4.57,11.72,8.62,23.7,12.01,35.82
		c2.82,10.09,5.6,20.47,6.17,30.84c1.41,25.92,0.96,51.89-7.01,76.99c-5.64,17.76-11.59,35.43-18.08,52.89
		c-2.09,5.63-0.52,6.89,4.45,6.91c8.74,0.03,17.56-0.75,26.2,0.16c12.33,1.29,21.73-0.83,24.29-14.87c0.04-0.21,0.32-0.36,0.41-0.57
		c6.83-16.88,14.75-33.42,20.18-50.75c5.49-17.53,8.87-35.76,12.55-53.81c7.96-39.11,6.92-78.42-1.15-117.2
		c-4.17-20.01-11.06-39.7-18.9-58.64c-12.75-30.79-31.33-58.16-54.32-82.43c-25.52-26.94-53.55-50.79-86.13-68.79
		c-15.35-8.48-31.13-16.26-47-23.74c-9.9-4.67-20.2-8.59-30.56-12.13c-14.33-4.9-28.85-9.29-43.38-13.6
		c-11.22-3.33-22.45-6.84-33.89-9.16c-16.1-3.26-32.48-5.14-48.63-8.23c-27.41-5.24-55.04-7.81-82.9-7.65
		c-29.97,0.18-59.96,0.42-89.9,1.6c-15.7,0.61-31.33,3.24-46.98,5.02c-13.3,1.51-26.62,2.9-39.88,4.7
		c-9.55,1.3-19.06,2.98-28.51,4.88c-9.17,1.85-18.25,4.17-27.35,6.33c-11.66,2.77-23.36,5.39-34.94,8.44
		c-11.75,3.09-23.45,6.41-35.06,10c-14.26,4.42-28.37,9.31-42.59,13.84c-5.13,1.63-6.6,4.86-6.54,10.1
		C566.01,319.33,565.87,341.77,565.87,364.21z M688.43,601.38c-0.79,3.55-1.54,6.23-1.98,8.96c-1.32,8.22-0.31,9.43,8.2,9.55
		c7.79,0.11,15.59-0.12,23.38,0.12c4.92,0.15,8.25-1.31,9.24-6.52c1.45-7.62,2.85-15.26,4.49-22.84c2.11-9.74,1.21-11.08-9.09-11.14
		c-28.82-0.14-57.63-0.28-86.45-0.06c-3.46,0.03-7.5,1.46-10.25,3.57c-8.93,6.86-17.61,14.09-25.89,21.72
		c-2.51,2.32-4.17,6.23-4.9,9.68c-1.9,8.95-2.97,18.06-4.53,27.08c-2.49,14.36-5.1,28.7-7.66,43.05c-0.78,4.35,0.49,6.57,5.46,6.56
		c39.68-0.05,79.37,0.14,119.05-0.06c2.17-0.01,5.86-2.52,6.26-4.41c3.12-14.74,5.61-29.61,8.29-44.44c1.17-6.5-1.59-8.99-8.11-8.91
		c-17.95,0.2-35.9,0.03-53.85-0.02c-13.02-0.04-16.05,3.11-16.28,15.93c-0.1,5.65,2.32,7.61,7.6,7.5
		c6.61-0.13,13.23-0.01,19.84,0.07c3.15,0.04,7.32-1,6.59,4.5c-0.57,4.26-0.16,9.16-7.15,8.91c-10.61-0.38-21.25-0.06-31.88-0.04
		c-3.84,0.01-7.68,0-12.07,0c3.34-19.4,5.99-37.33,9.66-55.03c2.12-10.24,9.05-14.73,19.42-14.72c8.27,0.01,16.54-0.04,24.8,0.08
		C683.07,600.5,685.52,601.02,688.43,601.38z M819.4,580.27c0-0.05,0-0.1,0-0.15c-14.87,0-29.74-0.25-44.6,0.18
		c-3.68,0.1-7.9,1.59-10.82,3.82c-8.21,6.28-15.99,13.15-23.65,20.09c-2.31,2.09-4.8,5-5.33,7.88c-4.41,23.77-8.19,47.66-12.6,71.43
		c-1.17,6.29,0.79,7.89,6.72,7.9c25.71,0.05,51.47-0.33,77.13,0.95c13.57,0.67,24.06-3.1,33.56-12.36
		c8.78-8.56,19.2-15.1,21.01-29.26c2.65-20.75,6.91-41.29,10.6-61.9c1.29-7.23,0.55-8.5-6.71-8.55
		C849.61,580.2,834.5,580.27,819.4,580.27z M490.83,752.87c-1.33,6.95-1.91,12.61-3.6,17.92c-1.34,4.22-3.5,8.45-6.26,11.91
		c-5.75,7.24-14.22,4.69-21.78,4.85c-10.49,0.22-12.56,2.22-13.41,12.62c-0.44,5.4,1.6,7.11,6.77,7.01
		c11.57-0.23,23.15,0.1,34.72-0.19c2.89-0.07,6.33-0.84,8.5-2.56c8.63-6.88,17.04-14.08,25.13-21.59c2.4-2.23,4.32-5.71,4.98-8.92
		c2.21-10.59,3.78-21.32,5.52-32.01c1.42-8.74,0.8-9.49-7.87-9.51c-25.75-0.06-51.5,0.38-77.23-0.35
		c-9.85-0.28-17.48,2.21-24.92,8.58c-13.46,11.51-28,21.95-26.68,42.57c0.03,0.44-0.31,0.89-0.39,1.35
		c-3.1,17.12-6.2,34.25-9.3,51.38c-0.86,4.73,0.07,7.62,5.91,7.61c38.73-0.03,77.47,0.22,116.2,0.2c6.98,0,8.98-3.99,8.82-15.38
		c-0.09-6.64-5.04-5.07-8.71-5.09c-24.56-0.14-49.13-0.19-73.69-0.13c-5,0.01-7.05-0.71-5.82-6.84c3.34-16.6,5.69-33.4,8.47-50.12
		c0.8-4.8,8.41-13.05,13.22-13.18C462.82,752.64,476.25,752.87,490.83,752.87z M1095.49,754.26c-1.28,7.71-2.02,14.25-3.58,20.58
		c-0.73,2.98-2.75,5.81-4.69,8.31c-6.24,8.01-15.33,6.17-23.54,5.75c-10.13-0.52-11.8,2.92-12.83,12.44
		c-0.53,4.95,0.76,7.42,6.39,7.27c11.8-0.31,23.62,0.07,35.42-0.18c2.66-0.06,5.83-0.86,7.83-2.47c8.62-6.92,17.12-14.04,25.18-21.6
		c2.54-2.38,4.43-6.17,5.17-9.63c2.28-10.58,3.85-21.3,5.71-31.97c1.36-7.77,0.39-8.94-7.92-8.96c-25.98-0.07-51.97,0.48-77.92-0.39
		c-10.33-0.35-18.2,2.63-25.31,9.44c-3.4,3.25-6.71,6.73-10.59,9.33c-9.05,6.08-12.97,14.15-14.36,25.12
		c-2.56,20.26-6.85,40.31-10.61,60.41c-0.91,4.84,0.29,7.2,5.49,7.21c38.97,0.06,77.93,0.24,116.9,0.23c6.29,0,9.27-5.78,8.62-15.62
		c-0.38-5.8-4.77-4.86-8.42-4.87c-23.85-0.09-47.7-0.09-71.55-0.17c-2.76-0.01-5.51-0.28-8.67-0.45c0-2.08-0.19-3.48,0.03-4.81
		c2.93-17.4,5.86-34.81,8.92-52.19c0.88-4.99,8.87-12.61,13.74-12.7C1068.08,754.11,1081.27,754.26,1095.49,754.26z M629,753.24
		c-1.03,6.65-1.9,12.41-2.8,18.16c-1.69,10.8-8.17,16.32-19.24,16.38c-4.72,0.03-9.45-0.23-14.16,0.06
		c-6.32,0.39-8.49,4.78-8.1,14.6c0.25,6.29,4.78,4.63,8.23,4.68c4.99,0.07,9.37,0.67,11.08,6.39c2.49,8.33,5.45,16.54,7.56,24.97
		c1.03,4.11,3.17,5.45,6.87,5.47c9.44,0.04,18.89,0.23,28.32-0.09c1.84-0.06,4.52-1.72,5.24-3.35c1.5-3.38,2.58-7.22,2.59-10.88
		c0.01-1.95-2.39-4.07-4.03-5.81c-2.06-2.18-5.13-3.66-6.55-6.14c-2.61-4.53-4.34-9.57-6.76-15.14c6.74-5.78,14.5-12.25,22.01-18.98
		c1.8-1.61,3.54-3.94,4.04-6.21c2.58-11.71,5-23.48,6.96-35.31c1.45-8.74,0.72-9.32-8.14-9.36c-28.56-0.11-57.11-0.25-85.67-0.02
		c-3.42,0.03-7.4,1.52-10.14,3.62c-8.55,6.56-16.85,13.5-24.77,20.8c-2.49,2.3-4.27,6.04-5.04,9.42
		c-2.58,11.21-4.71,22.53-6.7,33.87c-2.16,12.29-3.92,24.64-5.97,36.95c-0.77,4.62,1.02,6.61,5.64,6.52
		c5.43-0.1,10.86,0.01,16.28,0.01c16.62,0,16.11-0.08,18.7-16.84c3.23-20.91,6.87-41.79,11.61-62.4
		c1.02-4.43,7.15-10.41,11.43-10.86C600.97,752.35,614.7,753.24,629,753.24z M348.99,771.29c12.09,0,23.12,0.17,34.12-0.21
		c1.45-0.05,3.62-2.76,4.04-4.57c1.92-8.24,3.22-16.62,4.95-24.9c1.84-8.83,1.55-9.36-7.37-9.4c-27.62-0.12-55.23-0.34-82.85-0.16
		c-4.19,0.03-9.42,0.71-12.36,3.21c-10.6,9.01-20.44,18.92-30.53,28.52c-0.28,0.27-0.22,0.9-0.31,1.36
		c-1.96,10.63-4.1,21.23-5.84,31.89c-1.57,9.61-1.14,9.91,8.84,9.92c24.31,0.02,48.63-0.02,72.94,0.16c2.04,0.01,5.29,1.03,5.8,2.4
		c0.63,1.66-0.5,4.65-1.84,6.26c-3.81,4.62-8.31,7.46-15.06,7.31c-21.47-0.48-42.96-0.23-64.44-0.24
		c-10.98-0.01-11.38,0.35-13.03,11.01c-1.37,8.87-1.21,9.08,7.96,9.12c24.31,0.1,48.67-0.68,72.92,0.59
		c13.99,0.73,24.39-3.38,34.94-12.27c11.87-9.99,20.9-20.39,21.19-36.69c0.09-5.08-1.05-7.48-6.57-7.15
		c-5.88,0.35-11.8,0.07-17.7,0.06c-19.12-0.02-38.24-0.09-57.36-0.02c-5.63,0.02-8.47-1.55-6.59-7.93c1.12-3.8,1.12-7.92,1.74-11.88
		c1.23-7.84,6.7-14.07,13.32-14.84c13.41-1.57,27.13-0.47,41.38-0.47C350.5,758.86,349.86,764.13,348.99,771.29z M705.07,823.39
		c1.13-7.05,2-13.05,3.06-19.01c3.79-21.3,7.58-42.6,11.52-63.88c0.93-5-0.21-7.72-5.82-7.64c-8.49,0.11-16.99-0.02-25.49-0.05
		c-4.4-0.01-6.78,1.83-7.57,6.52c-5.43,32.23-10.88,64.46-16.81,96.6c-1.24,6.74,0.83,8.27,6.96,8.24
		c23.13-0.14,46.26,0.17,69.39-0.15c3.62-0.05,7.88-1.62,10.69-3.91c14.59-11.85,28.96-23.99,43.04-36.45
		c3.12-2.76,6.03-6.96,6.84-10.95c3.64-17.73,6.46-35.63,9.65-53.45c0.8-4.47-1.22-6.05-5.37-6.04c-8.73,0.03-17.47,0.07-26.2-0.07
		c-5.01-0.08-6.81,2.25-7.57,7.14c-2.63,16.95-5.49,33.88-8.93,50.69c-0.81,3.97-3.63,8-6.58,10.94
		c-5.46,5.45-12.27,9.59-17.5,15.23C728.6,827.75,716.94,823.17,705.07,823.39z M953.61,770.77c1.18,0.57,2.41,1.65,3.66,1.68
		c10.14,0.23,20.29,0.49,30.41,0.11c1.6-0.06,3.98-3.07,4.46-5.09c1.93-8.23,3.15-16.63,4.85-24.92c1.73-8.39,1.51-8.88-7.05-8.92
		c-29.03-0.12-58.06-0.3-87.09-0.1c-3.2,0.02-6.89,1.63-9.47,3.64c-8.34,6.5-16.56,13.22-24.22,20.5c-3.02,2.87-5.59,7.2-6.38,11.26
		c-4.43,22.61-8.2,45.35-12.31,68.02c-0.9,4.95,0.09,7.51,5.86,7.51c38.71,0.01,77.41,0.19,116.12,0.41
		c4.75,0.03,7.71-1.34,7.63-6.69c-0.03-1.86,0.37-3.77,0.8-5.59c1.49-6.28-0.93-8.35-7.3-8.29c-24.07,0.24-48.15,0.06-72.23,0.01
		c-9.01-0.02-9.4-0.29-7.92-9.13c2.4-14.39,5.27-28.69,7.61-43.09c1.99-12.29,8.71-18.34,21.17-18.3c4.72,0.02,9.44,0.04,14.16,0.05
		c6.49,0.01,12.97,0,20.13,0C955.37,760.4,954.51,765.44,953.61,770.77z M821.03,844.79c0.01-0.13,0.02-0.26,0.03-0.39
		c4.25,0,8.51-0.19,12.74,0.05c4.55,0.26,6.7-1.31,7.48-6.13c1.71-10.67,4.25-21.21,6.16-31.86c1.75-9.73,3.12-19.53,4.66-29.29
		c0.62-3.95-0.46-6.47-5.03-6.45c-8.97,0.03-17.98-0.5-26.89,0.24c-2.52,0.21-6.34,3.7-6.85,6.23c-3.29,16.37-5.97,32.87-8.55,49.37
		c-0.87,5.53-3.24,13.95-0.7,16.13C807.67,845.78,815.19,844.31,821.03,844.79z M837.9,753.57c3.99,0,8-0.19,11.98,0.05
		c4.52,0.28,7.17-1.39,7.81-6.02c0.38-2.78,1-5.53,1.42-8.31c0.63-4.12-0.95-6.12-5.36-6.04c-8.93,0.16-17.86,0.11-26.79,0.02
		c-4.72-0.05-6.44,2.18-6.91,6.79c-1.39,13.46-1.56,13.45,12.21,13.48C834.14,753.56,836.02,753.55,837.9,753.57z"/>
	<path class="st1" d="M399.09,419.29c-1.13,1.21-2.05,2.75-3.41,3.59c-46.64,28.79-88.94,63.01-126.52,102.83
		c-25.72,27.25-47.57,57.54-65.7,90.41c-14.45,26.2-24.8,53.95-32.52,82.88c-9.7,36.38-13.3,73.2-11.26,110.67
		c1.16,21.19,4.82,41.9,10.49,62.42c14.63,52.94,46.54,94.12,86.72,129.83c26.05,23.15,56.35,39.94,87.6,54.41
		c28.84,13.36,58.41,25.7,89.83,32.26c25.76,5.38,51.52,10.85,77.45,15.25c43.15,7.32,86.76,9.37,130.38,6.65
		c30.03-1.87,60-5.54,89.84-9.56c22.79-3.08,45.58-6.98,67.94-12.33c23.94-5.74,47.59-12.95,70.95-20.73
		c21.94-7.31,43.74-15.33,64.9-24.66c24.19-10.67,47.84-22.65,71.29-34.88c50.86-26.55,97.13-60.09,140.31-97.5
		c39.68-34.38,75.26-72.94,103.67-117.5c3.96-6.22,8.29-9.26,15.95-8.68c9.63,0.72,19.36,0.09,29.04,0.31
		c2.13,0.05,5.5,0.72,6.03,2.03c0.7,1.73-0.28,4.74-1.51,6.54c-9.35,13.76-18.81,27.46-28.48,41.01
		c-24.86,34.85-53.76,66.33-85.29,94.98c-27.45,24.94-56.65,48.18-86.6,70.08c-25.67,18.77-53,35.45-80.53,51.43
		c-22.88,13.28-46.97,24.55-70.84,36.05c-18.33,8.84-36.99,17.07-55.82,24.81c-17.56,7.21-35.45,13.64-53.34,19.99
		c-13.47,4.78-27.06,9.28-40.8,13.21c-17.34,4.96-34.83,9.45-52.36,13.71c-14.15,3.45-28.38,6.65-42.7,9.27
		c-20.13,3.68-40.35,6.94-60.59,9.99c-55.54,8.34-111.42,8.43-167.32,5.77c-19.22-0.91-38.39-3.74-57.49-6.39
		c-17.91-2.49-35.93-4.94-53.48-9.16c-19.99-4.8-39.76-10.86-59.19-17.62c-19.47-6.77-38.97-13.94-57.43-23.02
		c-21.37-10.51-42.48-22.02-62.18-35.35c-44.47-30.1-80.57-68.49-105.01-116.62c-8.93-17.6-15.29-36.62-21.58-55.41
		c-13.04-38.97-13.98-79.38-9.9-119.63c2.21-21.82,8.2-43.38,13.82-64.7c10.47-39.69,30.16-75.11,53.06-108.83
		c17.6-25.91,37.72-49.73,60.13-71.63c26.8-26.19,55.25-50.63,86.75-70.72c27.95-17.83,57.77-32.79,87.12-48.35
		c12.59-6.68,26.04-11.76,39.19-17.33c2.49-1.05,5.45-0.98,8.19-1.43C398.28,418.15,398.68,418.72,399.09,419.29z"/>
	<path class="st2" d="M565.87,364.21c0-22.44,0.14-44.88-0.11-67.32c-0.06-5.24,1.42-8.46,6.54-10.1
		c14.22-4.53,28.33-9.42,42.59-13.84c11.61-3.6,23.31-6.91,35.06-10c11.59-3.05,23.28-5.67,34.94-8.44
		c9.11-2.16,18.18-4.48,27.35-6.33c9.45-1.9,18.96-3.58,28.51-4.88c13.26-1.8,26.58-3.19,39.88-4.7c15.65-1.77,31.28-4.4,46.98-5.02
		c29.94-1.17,59.93-1.42,89.9-1.6c27.86-0.17,55.49,2.4,82.9,7.65c16.14,3.09,32.52,4.97,48.63,8.23
		c11.45,2.32,22.68,5.83,33.89,9.16c14.53,4.32,29.04,8.7,43.38,13.6c10.36,3.54,20.66,7.46,30.56,12.13
		c15.87,7.48,31.64,15.26,47,23.74c32.59,18,60.62,41.85,86.13,68.79c22.99,24.27,41.57,51.63,54.32,82.43
		c7.84,18.93,14.74,38.63,18.9,58.64c8.07,38.78,9.11,78.09,1.15,117.2c-3.67,18.05-7.06,36.28-12.55,53.81
		c-5.43,17.32-13.34,33.87-20.18,50.75c-0.09,0.21-0.37,0.36-0.41,0.57c-2.56,14.04-11.96,16.16-24.29,14.87
		c-8.64-0.9-17.46-0.13-26.2-0.16c-4.97-0.02-6.54-1.28-4.45-6.91c6.49-17.46,12.44-35.14,18.08-52.89
		c7.96-25.09,8.42-51.07,7.01-76.99c-0.57-10.37-3.35-20.76-6.17-30.84c-3.39-12.11-7.44-24.09-12.01-35.82
		c-9.13-23.41-23.23-43.78-39.78-62.53c-26.17-29.64-57.46-52.92-92.67-70.28c-22.36-11.03-46-19.67-69.56-27.97
		c-16.92-5.96-34.53-10.22-52.09-14.05c-13.03-2.84-26.51-3.6-39.75-5.57c-36.1-5.35-72.45-5.84-108.74-3.99
		c-25.59,1.31-51.16,4.13-76.58,7.51c-23.28,3.09-46.45,7.27-69.44,12.03c-15.09,3.13-29.88,7.87-44.65,12.41
		c-17.63,5.42-35.18,11.13-52.58,17.21c-18.76,6.56-37.4,13.48-55.93,20.65c-16.07,6.22-15.91,7.63-15.79-9.51
		c0.15-20.55,0.03-41.1,0.03-61.65C565.75,364.21,565.81,364.21,565.87,364.21z"/>
	<path class="st3" d="M688.43,601.38c-2.91-0.35-5.36-0.87-7.82-0.91c-8.27-0.12-16.53-0.07-24.8-0.08
		c-10.36-0.01-17.3,4.48-19.42,14.72c-3.67,17.71-6.31,35.63-9.66,55.03c4.39,0,8.23,0.01,12.07,0c10.63-0.02,21.27-0.33,31.88,0.04
		c6.98,0.25,6.58-4.65,7.15-8.91c0.73-5.5-3.44-4.46-6.59-4.5c-6.61-0.08-13.23-0.2-19.84-0.07c-5.28,0.11-7.71-1.85-7.6-7.5
		c0.23-12.82,3.26-15.97,16.28-15.93c17.95,0.05,35.9,0.22,53.85,0.02c6.52-0.07,9.28,2.42,8.11,8.91
		c-2.68,14.83-5.17,29.7-8.29,44.44c-0.4,1.89-4.08,4.4-6.26,4.41c-39.68,0.2-79.36,0.01-119.05,0.06
		c-4.97,0.01-6.24-2.21-5.46-6.56c2.56-14.35,5.17-28.69,7.66-43.05c1.56-9.02,2.64-18.14,4.53-27.08c0.73-3.46,2.39-7.37,4.9-9.68
		c8.28-7.63,16.96-14.86,25.89-21.72c2.75-2.11,6.79-3.54,10.25-3.57c28.81-0.22,57.63-0.08,86.45,0.06
		c10.31,0.05,11.2,1.39,9.09,11.14c-1.64,7.58-3.04,15.22-4.49,22.84c-0.99,5.21-4.32,6.67-9.24,6.52
		c-7.79-0.24-15.59-0.01-23.38-0.12c-8.5-0.12-9.52-1.33-8.2-9.55C686.89,607.61,687.64,604.93,688.43,601.38z"/>
	<path class="st4" d="M819.4,580.27c15.1,0,30.21-0.07,45.31,0.03c7.25,0.05,8,1.31,6.71,8.55c-3.69,20.61-7.95,41.15-10.6,61.9
		c-1.81,14.16-12.23,20.71-21.01,29.26c-9.5,9.26-20,13.03-33.56,12.36c-25.66-1.28-51.41-0.9-77.13-0.95
		c-5.93-0.01-7.88-1.61-6.72-7.9c4.41-23.77,8.19-47.66,12.6-71.43c0.53-2.88,3.02-5.79,5.33-7.88
		c7.67-6.94,15.45-13.81,23.65-20.09c2.91-2.23,7.14-3.71,10.82-3.82c14.86-0.42,29.73-0.18,44.6-0.18
		C819.4,580.18,819.4,580.22,819.4,580.27z M827.61,600.65c-11.54,0-22.77-0.02-34.01,0.01c-8.53,0.02-16.8,6.57-18.4,15.08
		c-3.07,16.39-5.8,32.84-8.79,49.24c-0.79,4.33,0.65,6.09,5.1,6.03c10.6-0.14,21.21,0.12,31.81-0.08
		c6.64-0.13,13.99-7.44,14.92-13.43C821.1,639.18,824.25,620.92,827.61,600.65z"/>
	<path class="st5" d="M490.83,752.87c-14.58,0-28.01-0.23-41.42,0.12c-4.81,0.13-12.42,8.38-13.22,13.18
		c-2.78,16.72-5.12,33.52-8.47,50.12c-1.24,6.13,0.82,6.85,5.82,6.84c24.56-0.07,49.13-0.02,73.69,0.13
		c3.67,0.02,8.62-1.55,8.71,5.09c0.16,11.39-1.85,15.37-8.82,15.38c-38.73,0.02-77.47-0.22-116.2-0.2c-5.84,0-6.76-2.88-5.91-7.61
		c3.1-17.13,6.19-34.25,9.3-51.38c0.08-0.46,0.42-0.91,0.39-1.35c-1.32-20.63,13.22-31.07,26.68-42.57
		c7.44-6.37,15.07-8.85,24.92-8.58c25.73,0.72,51.48,0.28,77.23,0.35c8.68,0.02,9.3,0.77,7.87,9.51
		c-1.74,10.69-3.31,21.42-5.52,32.01c-0.67,3.21-2.59,6.7-4.98,8.92c-8.09,7.52-16.5,14.71-25.13,21.59
		c-2.17,1.73-5.61,2.49-8.5,2.56c-11.57,0.28-23.15-0.04-34.72,0.19c-5.17,0.1-7.22-1.62-6.77-7.01
		c0.86-10.39,2.92-12.39,13.41-12.62c7.56-0.16,16.03,2.39,21.78-4.85c2.75-3.46,4.91-7.69,6.26-11.91
		C488.92,765.48,489.49,759.82,490.83,752.87z"/>
	<path class="st5" d="M1095.49,754.26c-14.22,0-27.41-0.16-40.59,0.08c-4.87,0.09-12.86,7.71-13.74,12.7
		c-3.07,17.38-5.99,34.79-8.92,52.19c-0.22,1.33-0.03,2.72-0.03,4.81c3.16,0.17,5.92,0.44,8.67,0.45
		c23.85,0.07,47.7,0.08,71.55,0.17c3.65,0.01,8.03-0.92,8.42,4.87c0.65,9.85-2.33,15.62-8.62,15.62
		c-38.97,0.01-77.93-0.17-116.9-0.23c-5.2-0.01-6.39-2.37-5.49-7.21c3.77-20.1,8.06-40.15,10.61-60.41
		c1.38-10.97,5.31-19.04,14.36-25.12c3.87-2.6,7.19-6.08,10.59-9.33c7.11-6.8,14.98-9.78,25.31-9.44
		c25.95,0.87,51.95,0.33,77.92,0.39c8.31,0.02,9.28,1.19,7.92,8.96c-1.86,10.67-3.43,21.39-5.71,31.97
		c-0.74,3.46-2.63,7.24-5.17,9.63c-8.06,7.56-16.56,14.68-25.18,21.6c-2.01,1.61-5.18,2.41-7.83,2.47
		c-11.8,0.25-23.62-0.13-35.42,0.18c-5.63,0.15-6.92-2.32-6.39-7.27c1.03-9.51,2.7-12.95,12.83-12.44
		c8.22,0.42,17.3,2.26,23.54-5.75c1.95-2.5,3.96-5.33,4.69-8.31C1093.47,768.51,1094.2,761.98,1095.49,754.26z"/>
	<path class="st6" d="M629,753.24c-14.3,0-28.03-0.89-41.52,0.52c-4.28,0.45-10.41,6.43-11.43,10.86
		c-4.73,20.61-8.37,41.49-11.61,62.4c-2.59,16.76-2.08,16.84-18.7,16.84c-5.43,0-10.86-0.11-16.28-0.01
		c-4.62,0.09-6.41-1.9-5.64-6.52c2.05-12.31,3.81-24.66,5.97-36.95c1.99-11.33,4.13-22.66,6.7-33.87c0.78-3.38,2.55-7.12,5.04-9.42
		c7.92-7.3,16.22-14.24,24.77-20.8c2.74-2.1,6.71-3.59,10.14-3.62c28.55-0.23,57.11-0.08,85.67,0.02c8.86,0.03,9.58,0.62,8.14,9.36
		c-1.96,11.83-4.38,23.59-6.96,35.31c-0.5,2.28-2.25,4.6-4.04,6.21c-7.52,6.74-15.27,13.21-22.01,18.98
		c2.42,5.57,4.15,10.61,6.76,15.14c1.43,2.48,4.5,3.96,6.55,6.14c1.64,1.74,4.04,3.87,4.03,5.81c-0.01,3.66-1.09,7.5-2.59,10.88
		c-0.72,1.62-3.4,3.29-5.24,3.35c-9.43,0.32-18.88,0.13-28.32,0.09c-3.7-0.02-5.85-1.36-6.87-5.47c-2.1-8.43-5.07-16.63-7.56-24.97
		c-1.71-5.73-6.1-6.32-11.08-6.39c-3.44-0.05-7.98,1.61-8.23-4.68c-0.39-9.82,1.79-14.21,8.1-14.6c4.7-0.29,9.44-0.04,14.16-0.06
		c11.07-0.06,17.55-5.58,19.24-16.38C627.1,765.65,627.97,759.89,629,753.24z"/>
	<path class="st7" d="M348.99,771.29c0.87-7.16,1.51-12.43,2.3-18.92c-14.25,0-27.97-1.1-41.38,0.47c-6.62,0.78-12.09,7-13.32,14.84
		c-0.62,3.96-0.62,8.08-1.74,11.88c-1.87,6.38,0.96,7.95,6.59,7.93c19.12-0.07,38.24,0,57.36,0.02c5.9,0.01,11.82,0.29,17.7-0.06
		c5.52-0.33,6.66,2.07,6.57,7.15c-0.29,16.3-9.33,26.69-21.19,36.69c-10.55,8.89-20.95,13-34.94,12.27
		c-24.25-1.27-48.61-0.49-72.92-0.59c-9.18-0.04-9.33-0.25-7.96-9.12c1.65-10.65,2.05-11.01,13.03-11.01
		c21.48,0.01,42.97-0.24,64.44,0.24c6.75,0.15,11.25-2.69,15.06-7.31c1.33-1.62,2.46-4.6,1.84-6.26c-0.51-1.37-3.76-2.38-5.8-2.4
		c-24.31-0.18-48.63-0.14-72.94-0.16c-9.98-0.01-10.41-0.31-8.84-9.92c1.74-10.66,3.87-21.26,5.84-31.89
		c0.09-0.46,0.03-1.1,0.31-1.36c10.09-9.6,19.93-19.51,30.53-28.52c2.94-2.5,8.17-3.18,12.36-3.21c27.61-0.18,55.23,0.04,82.85,0.16
		c8.92,0.04,9.21,0.57,7.37,9.4c-1.73,8.29-3.03,16.66-4.95,24.9c-0.42,1.81-2.6,4.52-4.04,4.57
		C372.11,771.46,361.08,771.29,348.99,771.29z"/>
	<path class="st8" d="M705.07,823.39c11.86-0.22,23.52,4.36,33.33-6.23c5.22-5.64,12.03-9.78,17.5-15.23
		c2.95-2.94,5.76-6.98,6.58-10.94c3.44-16.8,6.3-33.73,8.93-50.69c0.76-4.88,2.56-7.22,7.57-7.14c8.73,0.14,17.47,0.1,26.2,0.07
		c4.15-0.02,6.17,1.56,5.37,6.04c-3.19,17.82-6.01,35.72-9.65,53.45c-0.82,3.99-3.72,8.18-6.84,10.95
		c-14.08,12.46-28.45,24.6-43.04,36.45c-2.81,2.28-7.07,3.86-10.69,3.91c-23.13,0.31-46.26,0-69.39,0.15
		c-6.13,0.04-8.2-1.5-6.96-8.24c5.92-32.14,11.38-64.37,16.81-96.6c0.79-4.69,3.16-6.53,7.57-6.52c8.5,0.03,16.99,0.16,25.49,0.05
		c5.61-0.07,6.75,2.64,5.82,7.64c-3.94,21.27-7.73,42.58-11.52,63.88C707.08,810.35,706.21,816.34,705.07,823.39z"/>
	<path class="st8" d="M953.61,770.77c0.91-5.33,1.77-10.37,2.89-16.93c-7.16,0-13.64,0.01-20.13,0c-4.72-0.01-9.44-0.03-14.16-0.05
		c-12.45-0.04-19.18,6.01-21.17,18.3c-2.33,14.4-5.21,28.7-7.61,43.09c-1.47,8.84-1.09,9.11,7.92,9.13
		c24.08,0.05,48.15,0.23,72.23-0.01c6.37-0.06,8.79,2.01,7.3,8.29c-0.43,1.83-0.83,3.73-0.8,5.59c0.08,5.35-2.88,6.72-7.63,6.69
		c-38.71-0.22-77.41-0.4-116.12-0.41c-5.77,0-6.76-2.56-5.86-7.51c4.11-22.67,7.88-45.41,12.31-68.02
		c0.79-4.05,3.36-8.39,6.38-11.26c7.66-7.28,15.87-14,24.22-20.5c2.58-2.01,6.27-3.62,9.47-3.64c29.03-0.2,58.06-0.03,87.09,0.1
		c8.56,0.04,8.78,0.53,7.05,8.92c-1.71,8.29-2.92,16.69-4.85,24.92c-0.47,2.01-2.86,5.03-4.46,5.09
		c-10.12,0.38-20.28,0.12-30.41-0.11C956.01,772.42,954.79,771.34,953.61,770.77z"/>
	<path class="st9" d="M821.03,844.79c-5.84-0.48-13.35,0.99-16.94-2.1c-2.54-2.19-0.17-10.6,0.7-16.13c2.58-16.5,5.26-33,8.55-49.37
		c0.51-2.53,4.33-6.02,6.85-6.23c8.91-0.74,17.92-0.21,26.89-0.24c4.57-0.02,5.65,2.51,5.03,6.45c-1.54,9.77-2.91,19.56-4.66,29.29
		c-1.91,10.64-4.45,21.18-6.16,31.86c-0.77,4.83-2.93,6.39-7.48,6.13c-4.24-0.24-8.49-0.05-12.74-0.05
		C821.05,844.53,821.04,844.66,821.03,844.79z"/>
	<path class="st7" d="M837.9,753.56c-1.88-0.01-3.76,0-5.64-0.01c-13.77-0.04-13.6-0.02-12.21-13.48c0.48-4.62,2.19-6.84,6.91-6.79
		c8.93,0.09,17.86,0.14,26.79-0.02c4.41-0.08,5.99,1.92,5.36,6.04c-0.42,2.78-1.04,5.53-1.42,8.31c-0.63,4.63-3.29,6.3-7.81,6.02
		C845.9,753.38,841.89,753.57,837.9,753.56z"/>
	<path class="st10" d="M827.61,600.65c-3.36,20.27-6.51,38.53-9.35,56.84c-0.93,5.99-8.29,13.31-14.92,13.43
		c-10.6,0.21-21.21-0.06-31.81,0.08c-4.46,0.06-5.89-1.7-5.1-6.03c2.99-16.4,5.72-32.85,8.79-49.24c1.59-8.51,9.86-15.06,18.4-15.08
		C804.83,600.63,816.06,600.65,827.61,600.65z"/>
</g>
</svg>
